<svg xmlns="http://www.w3.org/2000/svg" width="48.722" height="38.664" viewBox="0 0 48.722 38.664">
  <path id="navigation-menu" d="M62.5,156.92v1.359a3.819,3.819,0,0,0,3.82,3.82H107.4a3.819,3.819,0,0,0,3.82-3.82V156.92a3.819,3.819,0,0,0-3.82-3.82H66.32A3.819,3.819,0,0,0,62.5,156.92Zm3.82,20.014H107.4a3.819,3.819,0,0,0,3.82-3.82V171.75a3.819,3.819,0,0,0-3.82-3.82H66.32a3.819,3.819,0,0,0-3.82,3.82v1.359a3.82,3.82,0,0,0,3.82,3.826Zm0,14.83H107.4a3.819,3.819,0,0,0,3.82-3.82v-1.359a3.819,3.819,0,0,0-3.82-3.82H66.32a3.819,3.819,0,0,0-3.82,3.82v1.359A3.819,3.819,0,0,0,66.32,191.764Z" transform="translate(-62.5 -153.1)" fill="#313131"/>
</svg>
