<svg xmlns="http://www.w3.org/2000/svg" width="49.794" height="34.132" viewBox="0 0 49.794 34.132">
  <path id="ui-message" d="M49.749,167.531v1.17q0,7.529,0,15.052a7.523,7.523,0,0,1-7.658,7.832q-17.171.075-34.347,0a7.532,7.532,0,0,1-7.763-7.852q-.015-7.521,0-15.038v-1.245c2.226.956,4.292,1.832,6.349,2.734,5.134,2.241,10.237,4.556,15.406,6.712a8.18,8.18,0,0,0,6.493-.1c4.7-2.017,9.381-4.073,14.072-6.115q3.219-1.4,6.433-2.8c.289-.124.593-.2,1.021-.354ZM24.833,157.5c6.876,0,13.758-.015,20.634,0,2.773.01,4.312,1.608,4.3,4.282a1.16,1.16,0,0,1-.856,1.235q-8.94,3.861-17.871,7.758c-1.329.583-2.674,1.125-3.988,1.748a5.268,5.268,0,0,1-4.561-.065Q11.618,167.732.768,162.955a1.539,1.539,0,0,1-.757-1.115c-.139-2.684,1.464-4.332,4.193-4.337,6.876-.02,13.753,0,20.629,0Z" transform="translate(0.025 -157.492)" fill="#716ec6"/>
</svg>
