<svg xmlns="http://www.w3.org/2000/svg" width="40.068" height="45" viewBox="0 0 40.068 45">
  <path id="user-female" d="M93.822,29.375,84.2,24.8l-4.09-1.923c0-.081.081-.122.239-.122l.122-.122H85.76q1.561,0,1.563-1.446V17.223H87.2Q86.958,8.8,82.269,3.869A9.563,9.563,0,0,0,76.617.622h-.477L76.018.5H74.576l-.243.122h-.482a9.275,9.275,0,0,0-5.535,3.126Q63.505,8.8,63.262,17.223v3.968a1.278,1.278,0,0,0,1.446,1.446h5.414l.239.239A.35.35,0,0,0,70.6,23L66.631,24.8l-9.985,4.572A2.445,2.445,0,0,0,55.2,31.9V42.852a2.8,2.8,0,0,0,.662,1.865,2.048,2.048,0,0,0,1.626.784H92.98a2.054,2.054,0,0,0,1.626-.784,2.8,2.8,0,0,0,.662-1.865V31.9A2.451,2.451,0,0,0,93.822,29.375Z" transform="translate(-55.2 -0.5)" fill="#716ec6"/>
</svg>
